<?xml version="1.0" encoding="UTF-8" standalone="yes"?>
<svg baseProfile="tiny-ps" version="1.2" viewBox="0 0 500 500" xml:space="preserve" xmlns="http://www.w3.org/2000/svg">
  <title>klitsche.de</title>
    <path d="M0,0h500v500H0V0z" fill="#ff3e35"/>
    <g fill="#fff">
      <path d="m136.4 85.1v334.5h-62.7v-327.5l62.7-7zm142.3 100.3-74.7 103 81.3 131.2h-71.1l-75.6-128.2 75.1-106.1h65z"/>
      <path d="m377.2 349.4c9 9 13.5 19.8 13.5 32.4s-4.5 23.5-13.5 32.7-20 13.8-32.9 13.8c-12.6 0-23.4-4.6-32.4-13.8s-13.5-20.1-13.5-32.7 4.5-23.4 13.5-32.4 19.8-13.5 32.4-13.5c12.9 0 23.9 4.5 32.9 13.5z"/>
  </g>
</svg>