<svg xmlns="http://www.w3.org/2000/svg" viewBox="0 0 222.49 222.11"><defs><style>.cls-1{fill:#0a66c2;}</style></defs><g id="Ebene_2" data-name="Ebene 2"><g id="Ebene_1-2" data-name="Ebene 1"><path class="cls-1" d="M208.61,0c4.64,1.15,8.61,3.29,11.28,7.43a16.57,16.57,0,0,1,2.6,9.23q0,94.35,0,188.71c0,9.94-6.95,16.74-16.9,16.74H16.82C7,222.11,0,215.32,0,205.5Q0,111.14,0,16.78C0,8.11,5.06,2.09,13.64.26A2.5,2.5,0,0,0,14.19,0ZM118.72,97.69l-.43-.13c0-4.07-.06-8.15,0-12.21,0-1.48-.26-2-1.9-2q-13.92.14-27.83,0c-1.52,0-1.79.49-1.79,1.88q.06,51,0,102c0,1.72.56,2,2.11,2,9.55-.06,19.11-.08,28.66,0,1.79,0,2.13-.56,2.12-2.23-.06-16.73,0-33.45,0-50.18a64.35,64.35,0,0,1,.52-9.31c1.31-9.12,5.17-16.88,16.77-17.86,9.95-.84,16.36,3,18.57,12.93a64,64,0,0,1,1.17,14q0,25.31,0,50.6c0,1.67.49,2,2.08,2q14.33-.11,28.66,0c1.71,0,2.17-.4,2.16-2.14-.06-19.63,0-39.27-.06-58.9a84.23,84.23,0,0,0-2.85-22.94c-3.21-11.2-9.86-19.16-21.32-22.57a57.08,57.08,0,0,0-13.71-2c-11.42-.56-21,3.15-28.74,11.62C121.36,94,120.09,95.91,118.72,97.69ZM66,136.51c0-17.07,0-34.13,0-51.2,0-1.52-.34-2-1.94-2q-14.52.12-29.06,0c-1.56,0-2,.41-1.95,2q.06,51,0,102c0,1.76.65,2,2.15,2q14.32-.09,28.65,0c1.73,0,2.18-.46,2.17-2.18C65.92,170.23,66,153.37,66,136.51Zm2.66-86.67a19.08,19.08,0,1,0-19.29,19A19.12,19.12,0,0,0,68.61,49.84Z"/></g></g></svg>