<svg xmlns="http://www.w3.org/2000/svg" viewBox="0 0 234.74 276"><defs><style>.cls-1{fill:#005a5f;}.cls-2{fill:#d4d600;}</style></defs><g id="Ebene_2" data-name="Ebene 2"><g id="Ebene_1-2" data-name="Ebene 1"><path class="cls-1" d="M21.41,54C19,54,17,54.84,16,56.49s-.89,3.89.22,6.11l26.94,46.64a.18.18,0,0,1,0,.22L.81,184.17a6.15,6.15,0,0,0,0,6.11A5.87,5.87,0,0,0,6,193H45.86c6,0,8.83-4,10.87-7.7l43-76.06c-.16-.26-27.39-47.77-27.39-47.77-2-3.53-5-7.47-11.1-7.47Z"/><path id="path19375" class="cls-2" d="M188.47,0c-5.94,0-8.52,3.75-10.66,7.58,0,0-85.75,152.08-88.57,157.07.14.27,56.56,103.77,56.56,103.77,2,3.53,5,7.58,11.12,7.58h39.76a5.88,5.88,0,0,0,5.28-2.54,6.21,6.21,0,0,0-.08-6.15L145.76,164.78a.24.24,0,0,1,0-.26L233.9,8.69A6.26,6.26,0,0,0,234,2.54,5.91,5.91,0,0,0,228.68,0Z"/></g></g></svg>